<?xml version="1.0" standalone="no"?>
<!DOCTYPE svg PUBLIC "-//W3C//DTD SVG 20010904//EN"
 "http://www.w3.org/TR/2001/REC-SVG-20010904/DTD/svg10.dtd">
<svg version="1.0" xmlns="http://www.w3.org/2000/svg"
 width="298.000000pt" height="265.000000pt" viewBox="0 0 298.000000 265.000000"
 preserveAspectRatio="xMidYMid meet">
<metadata>
Created by potrace 1.15, written by Peter Selinger 2001-2017
</metadata>
<g transform="translate(0.000000,265.000000) scale(0.100000,-0.100000)"
fill="#000000" stroke="none">
<path d="M0 1325 l0 -1325 1490 0 1490 0 0 1325 0 1325 -1490 0 -1490 0 0
-1325z m1518 884 c2 -26 13 -46 43 -75 l39 -38 0 -146 c0 -134 2 -148 20 -165
11 -10 20 -27 20 -37 0 -10 9 -28 20 -40 11 -12 20 -32 20 -44 0 -19 6 -23 38
-26 35 -3 37 -5 40 -39 2 -27 9 -38 23 -42 14 -4 19 -14 19 -41 l0 -35 58 -3
57 -3 3 -56 c2 -46 7 -58 22 -62 18 -5 20 -16 22 -143 l3 -139 38 -3 37 -3 0
-301 c0 -291 1 -300 20 -305 17 -5 20 -14 20 -64 0 -52 -2 -59 -20 -59 -17 0
-20 7 -20 40 l0 40 -180 0 -180 0 0 -40 c0 -33 -3 -40 -20 -40 -18 0 -20 7
-20 59 0 50 3 59 20 64 19 5 20 14 20 305 0 278 1 301 18 304 10 2 17 13 18
28 2 85 4 90 24 90 16 0 19 -8 22 -57 2 -44 7 -58 18 -58 11 0 16 14 18 58 3
48 6 57 22 57 16 0 19 -9 22 -57 l3 -58 35 0 35 0 3 118 3 117 -426 0 -426 0
3 -117 3 -118 35 0 35 0 3 58 c3 49 6 57 22 57 17 0 20 -7 20 -53 0 -58 4 -68
26 -60 10 3 14 22 14 58 0 37 4 55 14 58 24 9 35 -15 31 -67 -2 -41 0 -49 16
-53 18 -5 19 -19 19 -305 0 -291 1 -300 20 -305 17 -5 20 -14 20 -64 0 -52 -2
-59 -20 -59 -17 0 -20 7 -20 40 l0 40 -180 0 -180 0 0 -40 c0 -33 -3 -40 -20
-40 -18 0 -20 7 -20 59 0 50 3 59 20 64 19 5 20 14 20 306 l0 301 25 1 c14 1
31 2 38 3 9 1 13 38 15 140 2 127 4 138 22 143 15 4 20 16 22 62 l3 56 58 3
57 3 0 35 c0 27 5 37 19 41 14 4 21 15 23 42 3 34 5 36 41 39 31 3 37 7 37 26
0 13 9 31 20 41 11 10 20 28 20 40 0 12 9 30 20 40 18 17 20 31 20 165 l0 146
40 39 c33 32 40 46 40 78 0 34 2 38 23 35 17 -2 23 -10 25 -39z m82 -1445 c0
-409 -1 -424 -19 -424 -10 0 -21 7 -25 15 -3 8 -5 197 -6 419 0 375 1 406 17
415 10 5 21 7 25 5 5 -3 8 -196 8 -430z m-165 1 l0 -420 -22 -3 -23 -3 0 426
0 426 23 -3 22 -3 0 -420z m85 0 l0 -425 -25 0 -25 0 0 425 0 425 25 0 25 0 0
-425z"/>
<path d="M1464 2106 l-28 -24 1 -141 c2 -136 1 -142 -22 -170 -14 -16 -25 -37
-25 -47 0 -10 -9 -28 -21 -40 -30 -32 -16 -44 46 -44 l55 0 2 203 c3 194 4
202 23 202 19 0 20 -8 23 -202 l2 -203 55 0 c29 0 57 5 60 10 4 6 -5 24 -19
41 -15 17 -24 35 -20 40 3 5 -6 23 -20 39 -24 29 -25 35 -24 170 0 144 -4 159
-43 181 -13 7 -25 3 -45 -15z"/>
<path d="M1276 1592 c-2 -4 -1 -13 3 -20 6 -9 61 -12 222 -10 182 3 214 5 214
18 0 13 -32 15 -217 18 -119 1 -219 -1 -222 -6z"/>
<path d="M1235 1509 c-16 -25 21 -29 266 -27 218 3 254 5 254 18 0 13 -36 15
-257 18 -179 2 -259 -1 -263 -9z"/>
<path d="M1117 1433 c-4 -3 -7 -21 -7 -40 0 -32 1 -33 39 -33 30 0 40 4 44 20
3 11 12 20 21 20 9 0 16 -8 16 -20 0 -18 7 -20 79 -20 70 0 79 2 84 20 3 11
12 20 20 20 9 0 19 -9 22 -20 3 -11 12 -20 20 -20 7 0 15 9 18 20 3 11 13 20
22 20 9 0 19 -9 22 -20 3 -11 11 -20 18 -20 8 0 17 9 20 20 3 11 13 20 22 20
8 0 17 -9 20 -20 5 -18 14 -20 84 -20 72 0 79 2 79 20 0 12 7 20 16 20 9 0 18
-9 21 -20 4 -16 14 -20 45 -20 l39 0 -3 38 -3 37 -376 3 c-206 1 -378 -1 -382
-5z"/>
<path d="M990 745 l0 -286 138 3 137 3 3 283 2 282 -140 0 -140 0 0 -285z m80
0 c0 -238 -1 -245 -20 -245 -19 0 -20 7 -20 245 0 238 1 245 20 245 19 0 20
-7 20 -245z m80 0 c0 -238 -1 -245 -20 -245 -19 0 -20 7 -20 245 0 238 1 245
20 245 19 0 20 -7 20 -245z m80 -1 c0 -228 -1 -245 -17 -242 -17 3 -18 24 -21
246 -2 237 -2 242 18 242 20 0 20 -6 20 -246z"/>
<path d="M1722 748 l3 -283 138 -3 137 -3 0 286 0 285 -140 0 -140 0 2 -282z
m78 -3 c0 -238 -1 -245 -20 -245 -19 0 -20 7 -20 245 0 238 1 245 20 245 19 0
20 -7 20 -245z m80 0 c0 -238 -1 -245 -20 -245 -19 0 -20 7 -20 245 0 238 1
245 20 245 19 0 20 -7 20 -245z m80 0 c0 -238 -1 -245 -20 -245 -19 0 -20 7
-20 245 0 238 1 245 20 245 19 0 20 -7 20 -245z"/>
</g>
</svg>
